<?xml version="1.0" standalone="no"?>
<!DOCTYPE svg PUBLIC "-//W3C//DTD SVG 20010904//EN"
 "http://www.w3.org/TR/2001/REC-SVG-20010904/DTD/svg10.dtd">
<svg version="1.0" xmlns="http://www.w3.org/2000/svg"
 width="315.000000pt" height="315.000000pt" viewBox="0 0 315.000000 315.000000"
 preserveAspectRatio="xMidYMid meet">
<metadata>
Created by potrace 1.11, written by Peter Selinger 2001-2013
</metadata>
<g transform="translate(0.000000,315.000000) scale(0.100000,-0.100000)"
fill="#000000" stroke="none">
<path d="M790 2084 c0 -6 -10 -10 -22 -9 -30 2 -108 -24 -108 -37 0 -5 -4 -7
-8 -4 -5 3 -14 -4 -22 -14 -8 -10 -17 -17 -22 -14 -4 3 -8 -2 -8 -10 0 -9 -3
-16 -8 -16 -19 0 -46 -88 -45 -151 0 -54 5 -75 27 -113 15 -26 34 -50 42 -53
8 -3 14 -10 14 -17 0 -6 14 -17 32 -24 43 -16 31 -23 -38 -24 -114 -1 -221 39
-287 106 -56 57 -67 72 -67 91 0 9 -4 14 -9 11 -5 -3 -12 9 -15 27 -4 17 -8
39 -10 47 -2 8 -7 30 -11 48 -9 39 -46 68 -72 57 -10 -5 -21 -8 -24 -7 -3 0
-6 -4 -7 -11 0 -7 -3 -24 -6 -39 -4 -16 -3 -28 2 -28 4 0 9 -10 10 -22 5 -47
14 -73 47 -138 26 -49 95 -139 108 -140 4 0 16 -8 27 -17 30 -28 125 -75 161
-78 35 -4 41 -16 21 -39 -38 -41 -71 -128 -78 -205 -3 -44 -1 -52 29 -83 17
-18 43 -39 57 -45 60 -26 82 -33 104 -33 12 0 26 -3 30 -7 11 -12 246 -12 302
-1 27 5 57 10 67 11 9 1 17 5 17 9 0 4 3 7 8 6 13 -5 77 26 105 51 17 16 26
32 24 43 -3 10 -1 21 4 24 9 5 8 18 -7 89 -4 17 -7 36 -7 43 0 6 -4 12 -9 12
-4 0 -8 6 -8 13 0 8 -13 32 -29 54 -17 24 -26 45 -21 53 5 9 9 9 14 1 4 -6 12
-9 17 -5 6 3 27 7 49 9 21 2 44 6 51 11 8 4 10 3 5 -4 -5 -9 0 -10 16 -4 13 4
41 8 63 8 22 -1 43 4 47 9 5 6 8 4 8 -5 0 -8 -14 -30 -31 -47 -16 -18 -26 -33
-22 -33 4 0 2 -4 -5 -8 -17 -11 -52 -115 -56 -166 -6 -67 35 -121 107 -141 4
-2 9 -4 12 -5 3 -1 8 -3 13 -5 4 -1 14 -5 22 -8 8 -4 29 -8 45 -11 17 -2 30
-5 30 -6 0 -1 18 -3 40 -5 103 -7 152 -8 163 -1 7 4 12 2 12 -6 0 -8 3 -9 8
-3 4 6 21 12 37 13 44 3 124 23 170 42 45 20 99 75 89 91 -4 6 0 15 7 20 10 6
10 9 2 9 -7 0 -10 7 -7 15 12 31 -46 170 -90 217 -14 15 -26 29 -26 31 0 7
106 1 118 -7 7 -4 12 -2 12 6 0 9 3 9 8 2 4 -6 32 -11 62 -11 30 -1 57 -2 60
-3 3 -2 8 -2 13 -1 12 2 8 -16 -8 -29 -9 -7 -23 -29 -32 -49 -9 -20 -21 -39
-26 -42 -5 -3 -8 -9 -8 -13 4 -27 0 -66 -6 -63 -5 3 -8 -15 -8 -39 0 -24 4
-44 8 -44 5 0 5 -4 2 -10 -8 -13 48 -70 69 -70 9 0 16 -5 16 -11 0 -6 6 -9 14
-6 7 3 18 1 23 -4 5 -5 20 -12 34 -14 83 -16 131 -23 183 -24 33 -1 63 -4 67
-7 4 -2 10 -1 13 4 2 4 28 8 55 8 28 -1 51 2 51 5 0 4 18 9 39 13 22 3 52 11
68 18 15 6 31 11 36 10 4 -1 7 2 7 7 0 5 8 12 18 15 26 9 52 59 52 103 0 46
-39 160 -69 201 -11 17 -21 32 -21 35 0 5 71 21 83 19 4 -1 7 2 7 8 0 5 9 10
20 10 11 0 20 4 20 9 0 5 11 12 25 15 43 11 154 131 186 201 46 101 60 193 34
215 -46 38 -90 11 -101 -62 -4 -24 -13 -56 -20 -73 -7 -16 -14 -34 -15 -40
-10 -30 -114 -135 -134 -135 -8 0 -15 -4 -15 -9 0 -22 -171 -57 -252 -52 -28
2 -21 17 12 31 17 7 29 14 27 17 -2 2 11 19 29 38 44 47 66 140 47 204 -22 74
-64 129 -125 162 -34 19 -46 21 -119 21 -67 1 -118 -18 -146 -52 -7 -8 -13
-11 -13 -5 0 11 -19 -15 -50 -70 -24 -42 -36 -143 -20 -174 4 -9 14 -29 21
-45 18 -37 86 -106 105 -106 9 0 12 -5 9 -10 -4 -7 -26 -9 -53 -5 -26 3 -87 8
-137 11 -49 4 -95 11 -102 16 -7 6 -14 5 -18 -2 -3 -6 -11 -8 -16 -4 -9 5
-117 14 -201 17 -30 1 -32 14 -6 38 30 27 51 91 53 157 1 34 -2 62 -7 62 -4 0
-7 3 -6 8 3 13 -14 62 -21 62 -4 0 -14 11 -21 25 -7 14 -19 25 -27 25 -7 0
-13 4 -13 9 0 5 -22 18 -49 30 -164 70 -339 -43 -339 -220 0 -75 9 -101 49
-151 16 -21 26 -38 22 -39 -48 -6 -110 -11 -165 -12 -38 -1 -68 -5 -68 -8 0
-4 -12 -6 -27 -6 -16 0 -66 -3 -113 -7 -47 -5 -99 -9 -116 -10 -17 -2 -36 -6
-42 -10 -7 -4 -12 -1 -12 8 0 9 4 16 8 16 33 0 132 145 117 170 -3 6 -2 10 3
10 8 0 8 51 -1 92 -10 52 -91 157 -122 158 -5 0 -21 6 -35 13 -14 7 -34 12
-45 12 -11 0 -23 5 -27 10 -5 6 -8 6 -8 -1z"/>
</g>
</svg>
