<?xml version="1.0" standalone="no"?>
<!DOCTYPE svg PUBLIC "-//W3C//DTD SVG 20010904//EN"
 "http://www.w3.org/TR/2001/REC-SVG-20010904/DTD/svg10.dtd">
<svg version="1.0" xmlns="http://www.w3.org/2000/svg"
 width="457.000000pt" height="457.000000pt" viewBox="0 0 457.000000 457.000000"
 preserveAspectRatio="xMidYMid meet">
<metadata>
Created by potrace 1.11, written by Peter Selinger 2001-2013
</metadata>
<g transform="translate(0.000000,457.000000) scale(0.100000,-0.100000)"
fill="#000000" stroke="none">
<path d="M1252 4088 c-22 -22 -13 -44 65 -162 68 -104 79 -117 102 -114 51 6
40 45 -46 170 -78 113 -98 129 -121 106z"/>
<path d="M2322 4078 c-13 -13 -18 -222 -6 -252 9 -22 51 -20 64 3 5 11 10 65
10 121 0 56 -5 110 -10 121 -12 21 -40 25 -58 7z"/>
<path d="M3325 3950 c-102 -102 -118 -123 -109 -138 27 -42 48 -29 197 116 71
70 87 90 85 111 -2 19 -10 27 -28 29 -20 2 -48 -20 -145 -118z"/>
<path d="M1840 4046 c-9 -12 -4 -31 26 -98 44 -100 52 -110 77 -106 44 7 44
32 -3 128 -35 72 -48 90 -66 90 -12 0 -27 -7 -34 -14z"/>
<path d="M2908 4028 c-33 -27 -118 -157 -118 -181 0 -26 29 -45 49 -32 15 9
131 172 131 183 0 12 -28 42 -39 42 -4 0 -14 -6 -23 -12z"/>
<path d="M3680 3696 c-126 -76 -155 -98 -155 -116 0 -13 7 -28 17 -33 13 -9
48 8 175 80 87 51 162 99 168 107 13 20 -5 50 -31 54 -10 1 -89 -40 -174 -92z"/>
<path d="M722 3761 c-8 -4 -12 -18 -10 -30 2 -18 40 -43 163 -112 88 -49 168
-88 179 -87 10 2 24 11 30 20 16 26 -8 45 -177 137 -151 83 -162 87 -185 72z"/>
<path d="M1250 2860 l0 -820 1065 0 1065 0 0 820 0 820 -1065 0 -1065 0 0
-820z m1970 0 l0 -670 -912 2 -913 3 -3 655 c-1 360 0 661 3 668 3 9 196 12
915 12 l910 0 0 -670z"/>
<path d="M2157 3109 c-15 -9 -17 -35 -17 -253 0 -204 2 -246 15 -256 12 -10
56 7 252 101 130 63 243 120 250 127 37 37 21 49 -214 163 -274 133 -265 129
-286 118z"/>
<path d="M3695 3285 c-81 -35 -154 -70 -163 -78 -17 -18 -10 -45 14 -54 20 -7
301 104 327 130 19 19 11 50 -17 60 -7 3 -80 -23 -161 -58z"/>
<path d="M763 3264 c-13 -33 14 -49 151 -89 139 -40 167 -41 173 -4 6 29 -17
41 -138 74 -139 39 -177 43 -186 19z"/>
<path d="M3669 2875 c-48 -7 -92 -15 -98 -19 -16 -10 -13 -56 4 -62 8 -4 69 0
136 6 133 14 174 32 153 67 -14 23 -78 26 -195 8z"/>
<path d="M900 2864 c-52 -8 -101 -16 -107 -19 -19 -7 -16 -55 3 -62 15 -6 231
13 266 23 22 7 33 41 18 59 -15 18 -53 18 -180 -1z"/>
<path d="M3564 2546 c-15 -40 -1 -50 126 -88 145 -43 175 -46 190 -19 18 35
-16 56 -146 90 -136 35 -162 37 -170 17z"/>
<path d="M880 2455 c-138 -60 -145 -65 -145 -92 0 -44 29 -40 194 28 153 62
178 81 151 114 -20 24 -47 17 -200 -50z"/>
<path d="M3538 2199 c-43 -25 -21 -46 140 -137 86 -49 164 -91 174 -95 24 -8
50 15 46 42 -2 19 -36 41 -168 112 -91 49 -167 89 -170 89 -3 -1 -13 -5 -22
-11z"/>
<path d="M902 2028 c-112 -88 -131 -107 -129 -128 4 -49 39 -37 174 65 70 53
132 105 137 115 10 23 -8 50 -34 50 -9 0 -76 -46 -148 -102z"/>
<path d="M1835 1646 c-46 -20 -82 -69 -96 -131 -28 -127 53 -224 189 -225 109
0 172 70 172 189 0 51 -32 117 -65 135 -11 6 -22 14 -25 17 -10 12 -74 29
-109 29 -20 -1 -50 -7 -66 -14z"/>
<path d="M2606 1617 c-47 -26 -77 -80 -84 -148 -6 -62 2 -90 35 -130 36 -43
96 -69 161 -69 93 0 143 42 162 137 15 72 6 115 -33 159 -62 71 -167 94 -241
51z"/>
<path d="M3365 1617 c-73 -40 -110 -170 -71 -245 59 -113 247 -140 315 -44 30
42 44 124 30 176 -13 47 -77 116 -107 116 -12 0 -24 5 -27 10 -12 19 -98 11
-140 -13z"/>
<path d="M1027 1586 c-48 -18 -65 -32 -86 -75 -54 -107 -25 -213 72 -262 32
-17 54 -20 106 -17 106 6 151 53 158 167 3 52 0 73 -15 101 -39 72 -156 115
-235 86z"/>
<path d="M648 1371 c-86 -28 -132 -104 -126 -210 4 -82 33 -127 101 -160 62
-30 162 -29 208 2 55 36 81 98 77 183 -3 59 -8 77 -30 106 -47 62 -162 101
-230 79z"/>
<path d="M1468 1370 c-81 -24 -128 -98 -128 -199 0 -70 15 -107 59 -144 43
-36 94 -50 167 -45 104 7 154 63 162 184 7 109 -53 182 -167 204 -60 11 -56
11 -93 0z"/>
<path d="M2217 1366 c-51 -19 -76 -42 -99 -94 -23 -52 -26 -148 -4 -189 35
-68 103 -103 199 -103 110 0 166 57 175 179 7 109 -39 175 -145 207 -56 17
-77 17 -126 0z"/>
<path d="M3018 1371 c-86 -28 -132 -104 -126 -210 4 -82 33 -127 101 -160 62
-30 162 -29 208 2 55 36 81 98 77 183 -3 59 -8 77 -30 106 -47 62 -162 101
-230 79z"/>
<path d="M3767 1366 c-51 -19 -76 -42 -100 -96 -24 -54 -26 -144 -4 -186 36
-69 104 -104 200 -104 110 0 166 57 175 179 5 77 -9 115 -62 163 -30 28 -110
58 -150 58 -12 -1 -38 -7 -59 -14z"/>
<path d="M600 925 c-72 -21 -141 -66 -176 -116 -23 -34 -28 -53 -32 -124 l-4
-83 193 -7 c107 -3 253 -5 324 -3 l130 3 3 50 c6 87 -14 152 -62 200 -80 79
-249 115 -376 80z"/>
<path d="M1420 925 c-75 -21 -139 -62 -175 -114 -26 -38 -30 -52 -33 -126 l-4
-83 164 -7 c89 -3 235 -5 323 -3 l160 3 3 50 c6 87 -14 152 -62 200 -80 79
-249 115 -376 80z"/>
<path d="M2180 925 c-75 -21 -139 -62 -175 -114 -26 -38 -30 -52 -33 -126 l-4
-83 154 -7 c84 -3 230 -5 323 -3 l170 3 0 80 c-1 69 -4 87 -27 126 -30 51 -81
90 -148 114 -65 24 -193 28 -260 10z"/>
<path d="M2972 925 c-73 -21 -107 -40 -152 -87 -46 -46 -60 -88 -60 -174 l0
-62 143 -7 c78 -3 223 -5 322 -3 l180 3 3 62 c2 34 -2 81 -8 104 -16 57 -82
121 -156 149 -76 29 -199 36 -272 15z"/>
<path d="M3730 925 c-75 -21 -139 -62 -175 -114 -26 -38 -30 -52 -33 -126 l-4
-83 124 -7 c67 -3 213 -5 323 -3 l200 3 3 50 c9 129 -48 221 -164 265 -77 29
-199 36 -274 15z"/>
</g>
</svg>
